<svg width="400" height="500" xmlns="http://www.w3.org/2000/svg">
  <defs>
    <linearGradient id="grad1" x1="0%" y1="0%" x2="100%" y2="100%">
      <stop offset="0%" style="stop-color:#6366f1;stop-opacity:1" />
      <stop offset="100%" style="stop-color:#4f46e5;stop-opacity:1" />
    </linearGradient>
  </defs>
  <rect width="400" height="500" fill="url(#grad1)"/>
  <circle cx="200" cy="180" r="100" fill="#ffffff" opacity="0.2"/>
  <path d="M200,100 C155,100 120,135 120,180 C120,210 135,235 160,250 L160,280 C160,280 180,290 200,290 C220,290 240,280 240,280 L240,250 C265,235 280,210 280,180 C280,135 245,100 200,100 Z" fill="#ffffff"/>
  <circle cx="170" cy="170" r="10" fill="#6366f1"/>
  <circle cx="230" cy="170" r="10" fill="#6366f1"/>
  <path d="M170,220 Q200,240 230,220" stroke="#6366f1" stroke-width="5" fill="none"/>
  <text x="200" y="350" font-family="Arial" font-size="24" fill="white" text-anchor="middle">Seward Mupereri</text>
  <text x="200" y="380" font-family="Arial" font-size="16" fill="white" text-anchor="middle">Software Engineer</text>
</svg>
